<?xml version="1.0" encoding="utf-8"?>
<!-- Generator: Adobe Illustrator 17.0.0, SVG Export Plug-In . SVG Version: 6.00 Build 0)  -->
<!DOCTYPE svg PUBLIC "-//W3C//DTD SVG 1.1//EN" "http://www.w3.org/Graphics/SVG/1.1/DTD/svg11.dtd">
<svg version="1.1" id="Layer_1" xmlns="http://www.w3.org/2000/svg" xmlns:xlink="http://www.w3.org/1999/xlink" x="0px" y="0px"
	 viewBox="0 0 447 113" enable-background="new 0 0 447 113" xml:space="preserve">
<g>
	<g>
		<g>
			<path fill="#F47B20" d="M22.434,14.729L12.5,73.35h10.509l8.024-48.464c0,0,31.043,0,33.083,0c2.039,0,5.541,0.089,4.614,5.191
				c-0.889,5.093,1.15,12.417-10.73,12.417c-11.844,0-24.486,0-24.486,0l-1.717,10.285c0,0,20.346,0,27.222,0
				c6.912,0,17.069-1.242,19.421-18.403c2.393-17.16-2.13-19.998-19.292-19.775C41.985,14.821,22.434,14.729,22.434,14.729z"/>
			<polygon fill="#F47B20" points="101.052,14.729 60.706,73.35 73.031,73.35 106.241,24.975 115.603,51.982 94.362,51.982 
				87.487,61.916 119.011,61.916 122.958,73.35 134.486,73.35 113.914,14.729 			"/>
			<polygon fill="#F47B20" points="244.116,14.729 203.77,73.35 216.095,73.35 249.269,24.975 258.666,51.982 237.46,51.982 
				230.552,61.916 262.038,61.916 266.023,73.35 277.553,73.35 256.982,14.729 			"/>
			<path fill="#F47B20" d="M148.46,14.601l-9.801,58.749h10.729l7.896-48.375c0,0,24.038,0,28.112,0
				c4.078,0,13.44-1.462,11.084,7.469c-2.388,8.937-2.165,9.603-13.344,9.603c-11.174,0-23.24,0-23.24,0l-1.721,10.156
				c0,0,18.531,0,22.383,0c5.286,0.128,12.069-1.684,10.476,7.675c-1.559,9.393-2.224,13.471-2.224,13.471h10.381
				c0,0,2.13-13.374,2.482-15.957c0.35-2.578,0.35-7.321-2.394-9.358c3.503-2.926,5.896-3.854,7.23-13.437
				c1.368-9.624,3.501-19.869-18.051-19.869C166.864,14.729,148.46,14.601,148.46,14.601z"/>
			<g>
				<g>
					<path fill="#F47B20" d="M331.236,14.645c-20.878,0-39.642,0-39.642,0l-9.837,58.662c0,0,39.072,0.136,44.349,0.136
						c5.271,0,15.953-1.335,18.138-10.824c2.175-9.49,3.938-16.092-1.34-20.35c3.233-3.371,4.923-7.625,5.413-10.994
						C348.808,27.863,352.038,14.645,331.236,14.645z M337.139,34.644c-0.636,2.723-4.916,3.725-8.641,3.725
						c-3.727,0-25.096,0-25.096,0l-1.689,10.156c0,0,19.688-0.314,28.328,0c8.647,0.355,6.257,4.254,5.06,9.81
						c-1.19,5.623-9.488,5.128-13.917,5.128c-4.356,0-27.271,0-27.271,0l6.473-38.488c0,0,16.582,0.18,28.96,0.18
						C341.708,25.155,338.335,29.231,337.139,34.644z"/>
				</g>
			</g>
			<polygon fill="#F47B20" points="358.765,14.601 348.808,73.307 359.491,73.307 369.333,14.645 			"/>
			<polygon fill="#F47B20" points="374.747,14.645 373.016,25.201 433.717,25.201 435.5,14.78 			"/>
			<polygon fill="#F47B20" points="397.38,30.499 390.205,73.307 400.823,73.307 407.845,30.499 			"/>
		</g>
	</g>
	<g>
		<path fill="#005494" d="M49.14,98.185l3.104-14.575h7.981l-0.465,2.215h-4.922l-0.775,3.621h4.53l-0.463,2.21h-4.534l-0.893,4.244
			h5.055l-0.468,2.285H49.14z"/>
		<path fill="#005494" d="M64.269,89.021h0.034c0.386-0.457,0.795-0.778,1.217-1c0.441-0.167,0.912-0.236,1.455-0.236
			c1.336,0,2.357,0.815,2.073,2.198l-1.76,8.202H64.46l1.491-7.033c0.195-0.896,0.186-1.627-0.745-1.627
			c-0.896,0-1.225,0.73-1.421,1.627l-1.487,7.033h-2.859l2.188-10.229h2.859L64.269,89.021z"/>
		<path fill="#005494" d="M74.88,98.185l1.488-7.033c0.195-0.896,0.186-1.627-0.71-1.627c-0.93,0-1.225,0.73-1.421,1.627
			l-1.486,7.033h-2.859l3.103-14.575h2.857l-1.166,5.411h0.033c0.387-0.457,0.798-0.778,1.218-1
			c0.441-0.167,0.949-0.236,1.454-0.236c1.371,0,2.394,0.815,2.074,2.198l-1.726,8.202H74.88z"/>
		<path fill="#005494" d="M88.477,96.255c-0.147,0.662-0.192,1.268-0.252,1.93h-2.656l0.175-1.332h-0.07
			c-0.831,1.011-1.746,1.5-2.982,1.5c-1.997,0-2.41-1.436-2.024-3.262c0.735-3.367,3.347-3.485,5.995-3.449l0.175-0.799
			c0.188-0.86,0.199-1.452-0.833-1.452c-1.001,0-1.234,0.693-1.412,1.503h-2.772c0.254-1.23,0.781-2.029,1.556-2.486
			c0.766-0.472,1.746-0.623,2.828-0.623c3.599,0,3.746,1.507,3.35,3.399L88.477,96.255z M83.496,94.989
			c-0.165,0.746-0.219,1.622,0.692,1.622c1.674,0,1.89-2.226,2.122-3.366C84.914,93.297,83.887,93.195,83.496,94.989z"/>
		<path fill="#005494" d="M95.554,89.021h0.033c0.388-0.457,0.797-0.778,1.217-1c0.441-0.167,0.95-0.236,1.455-0.236
			c1.37,0,2.393,0.815,2.073,2.198l-1.724,8.202H95.75l1.486-7.033c0.195-0.896,0.186-1.627-0.709-1.627
			c-0.933,0-1.226,0.73-1.422,1.627l-1.486,7.033h-2.858l2.151-10.229h2.858L95.554,89.021z"/>
		<path fill="#005494" d="M107.774,91.605c0.339-1.537,0.074-2.027-0.841-2.027c-1.218,0-1.525,1.1-1.971,3.214
			c-0.69,3.075-0.555,3.771,0.493,3.771c0.877,0,1.481-0.817,1.787-2.133h2.82c-0.555,2.722-2.325,3.923-4.999,3.923
			c-3.688,0-3.693-2.215-2.988-5.428c0.562-2.809,1.494-5.141,5.248-5.141c2.638,0,3.884,1.114,3.308,3.821H107.774z"/>
		<path fill="#005494" d="M114.725,98.185h-2.859l2.189-10.229h2.821L114.725,98.185z M117.827,83.609l-0.465,2.215h-2.859
			l0.466-2.215H117.827z"/>
		<path fill="#005494" d="M122.377,89.021h0.033c0.389-0.457,0.798-0.778,1.22-1c0.441-0.167,0.947-0.236,1.453-0.236
			c1.37,0,2.396,0.815,2.074,2.198l-1.725,8.202h-2.858l1.487-7.033c0.196-0.896,0.185-1.627-0.709-1.627
			c-0.933,0-1.226,0.73-1.421,1.627l-1.488,7.033h-2.857l2.15-10.229h2.861L122.377,89.021z"/>
		<path fill="#005494" d="M138.001,87.955l-2.263,10.653c-0.159,0.73-0.725,3.462-4.647,3.462c-2.113,0-3.807-0.521-3.35-3.007
			h2.772c-0.074,0.424-0.089,0.798,0.057,1.07c0.103,0.214,0.418,0.33,0.856,0.33c0.691,0,1.204-0.621,1.42-1.688l0.417-1.909
			h-0.069c-0.561,0.793-1.48,1.2-2.394,1.2c-3.127,0-2.398-2.872-1.887-5.211c0.466-2.213,1.109-5.072,4.066-5.072
			c1.015,0,1.801,0.443,2.005,1.37h0.031l0.246-1.199H138.001z M132.211,96.255c0.997,0,1.372-1.023,1.861-3.248
			c0.466-2.213,0.641-3.482-0.406-3.482c-1.101,0-1.419,0.762-2.108,3.838C131.389,94.368,130.825,96.255,132.211,96.255z"/>
		<path fill="#005494" d="M147.322,98.387c-3.807,0-4.038-2.195-3.316-4.715h3.025c-0.281,1.364-0.472,2.551,1.199,2.551
			c1.033,0,1.676-0.621,1.886-1.66c0.569-2.601-5.558-2.808-4.615-7.116c0.472-2.32,1.946-4.114,5.667-4.114
			c2.996,0,4.196,1.326,3.346,4.422h-2.995c0.23-1.118,0.275-2.257-0.923-2.257c-0.999,0-1.724,0.594-1.937,1.577
			c-0.594,2.794,5.605,2.519,4.656,7.101C152.508,97.945,149.637,98.387,147.322,98.387z"/>
		<path fill="#005494" d="M158.457,93.554c-0.286,1.215-0.608,3.009,0.643,3.009c1.017,0,1.425-0.944,1.574-1.794h2.894
			c-0.265,1.064-0.835,1.96-1.656,2.621c-0.77,0.589-1.884,0.963-3.202,0.963c-3.688,0-3.694-2.215-3.025-5.428
			c0.598-2.809,1.532-5.141,5.284-5.141c3.82,0,3.735,2.49,2.933,5.77H158.457z M161.394,91.946
			c0.212-1.038,0.564-2.422-0.807-2.422c-1.3,0-1.625,1.56-1.813,2.422H161.394z"/>
		<path fill="#005494" d="M171.471,83.609l-3.103,14.575h-2.858l3.104-14.575H171.471z"/>
		<path fill="#005494" d="M178.328,85.347c-1.152-0.062-1.469,0.377-1.684,1.373l-0.288,1.235h1.354l-0.381,1.742h-1.317
			l-1.81,8.487h-2.858l1.809-8.487h-1.268l0.344-1.742h1.321c0.604-2.929,0.68-4.503,4.162-4.503c0.357,0,0.656,0.016,1.008,0.037
			L178.328,85.347z"/>
		<path fill="#005494" d="M183.254,91.674l-0.434,2.066h-4.955l0.435-2.066H183.254z"/>
		<path fill="#005494" d="M188.262,98.387c-3.77,0-3.999-2.195-3.314-4.715h3.061c-0.315,1.364-0.509,2.551,1.166,2.551
			c1.032,0,1.71-0.621,1.92-1.66c0.532-2.601-5.559-2.808-4.653-7.116c0.511-2.32,1.984-4.114,5.703-4.114
			c2.961,0,4.161,1.326,3.314,4.422h-2.995c0.228-1.118,0.308-2.257-0.926-2.257c-0.999,0-1.686,0.594-1.901,1.577
			c-0.595,2.794,5.606,2.519,4.621,7.101C193.449,97.945,190.58,98.387,188.262,98.387z"/>
		<path fill="#005494" d="M199.398,93.554c-0.247,1.215-0.607,3.009,0.646,3.009c1.014,0,1.424-0.944,1.608-1.794h2.892
			c-0.301,1.064-0.831,1.96-1.655,2.621c-0.805,0.589-1.883,0.963-3.236,0.963c-3.688,0-3.695-2.215-2.99-5.428
			c0.561-2.809,1.494-5.141,5.25-5.141c3.856,0,3.734,2.49,2.931,5.77H199.398z M202.336,91.946
			c0.212-1.038,0.566-2.422-0.805-2.422c-1.3,0-1.628,1.56-1.781,2.422H202.336z"/>
		<path fill="#005494" d="M211.11,87.955l-0.304,1.299h0.036c0.782-1.184,1.824-1.47,2.992-1.47l-0.555,2.538
			c-2.475-0.206-2.834,1.283-3.049,2.264l-1.155,5.599h-2.859l2.153-10.229H211.11z"/>
		<path fill="#005494" d="M214.474,87.955h2.894l-0.197,7.691h0.033l3.122-7.691h2.81l-4.979,10.229h-3.162L214.474,87.955z"/>
		<path fill="#005494" d="M225.665,98.185h-2.86l2.169-10.229h2.843L225.665,98.185z M228.804,83.609l-0.538,2.215h-2.86
			l0.537-2.215H228.804z"/>
		<path fill="#005494" d="M235.123,91.605c0.338-1.537,0.032-2.027-0.842-2.027c-1.218,0-1.566,1.1-2.008,3.214
			c-0.689,3.075-0.518,3.771,0.491,3.771c0.881,0,1.517-0.817,1.823-2.133h2.786c-0.555,2.722-2.289,3.923-4.999,3.923
			c-3.689,0-3.694-2.215-2.988-5.428c0.561-2.809,1.531-5.141,5.284-5.141c2.602,0,3.847,1.114,3.306,3.821H235.123z"/>
		<path fill="#005494" d="M242.572,93.554c-0.282,1.215-0.637,3.009,0.683,3.009c0.979,0,1.385-0.944,1.538-1.794h2.887
			c-0.225,1.064-0.83,1.96-1.649,2.621c-0.805,0.589-1.852,0.963-3.166,0.963c-3.685,0-3.694-2.215-3.065-5.428
			c0.637-2.809,1.534-5.141,5.286-5.141c3.819,0,3.737,2.49,2.935,5.77H242.572z M245.513,91.946
			c0.245-1.038,0.527-2.422-0.808-2.422c-1.299,0-1.626,1.56-1.779,2.422H245.513z"/>
		<path fill="#005494" d="M262.837,97.014c-1.366,1.155-2.819,1.373-4.391,1.373c-3.349,0-4.825-1.52-4.252-4.381
			c0.41-1.96,2.031-3.194,3.749-4.155c-0.531-1.036-1.177-2.202-0.838-3.672c0.359-1.62,2.517-2.847,5.003-2.847
			c1.44,0,3.59,0.611,3.131,2.865c-0.406,1.854-1.95,2.873-3.318,3.887l1.651,3.048c0.457-1,0.602-1.526,0.922-2.909h2.47
			c-0.341,1.469-0.746,3.397-2.057,4.991l1.581,2.971h-2.974L262.837,97.014z M259.214,91.624c-0.844,0.538-1.753,1.366-1.925,2.382
			c-0.312,1.367,0.29,2.217,1.736,2.217c0.859,0,1.736-0.307,2.435-0.945L259.214,91.624z M262.393,86.377
			c0.134-0.78-0.235-1.251-0.959-1.251c-0.679,0-1.422,0.454-1.542,1.169c-0.219,0.828,0.189,1.525,0.586,2.096
			C261.284,87.955,262.16,87.346,262.393,86.377z"/>
		<path fill="#005494" d="M272.582,98.185l3.064-14.575h3.023l-3.065,14.575H272.582z"/>
		<path fill="#005494" d="M282.954,89.021h0.031c0.774-0.969,1.61-1.236,2.638-1.236c1.052,0,1.705,0.476,2.021,1.286
			c0.85-0.883,1.732-1.286,2.919-1.286c1.334,0,2.395,0.815,2.073,2.198l-1.725,8.202h-2.86l1.524-7.033
			c0.16-0.896,0.147-1.627-0.745-1.627c-0.898,0-1.227,0.73-1.383,1.627l-1.525,7.033h-2.81l1.526-7.033
			c0.154-0.896,0.146-1.627-0.745-1.627c-0.901,0-1.229,0.73-1.389,1.627l-1.522,7.033h-2.862l2.156-10.229h2.857L282.954,89.021z"
			/>
		<path fill="#005494" d="M298.185,87.955l-0.264,1.149h0.028c0.751-1.034,1.607-1.32,2.729-1.32c2.942,0,2.138,3.284,1.696,5.38
			c-0.432,2.067-1.067,5.188-3.943,5.188c-0.995,0-1.673-0.248-2.074-1.11h-0.031l-1.159,5.282h-2.859l3.14-14.569H298.185z
			 M299.596,92.957c0.429-2.049,0.766-3.433-0.466-3.433c-1.188,0-1.489,1.384-1.927,3.433c-0.513,2.549-0.554,3.654,0.389,3.654
			C298.662,96.611,299.071,95.506,299.596,92.957z"/>
		<path fill="#005494" d="M308.607,87.955l-0.306,1.299h0.035c0.784-1.184,1.862-1.47,2.955-1.47l-0.519,2.538
			c-2.474-0.206-2.836,1.283-3.009,2.264l-1.194,5.599h-2.858l2.15-10.229H308.607z"/>
		<path fill="#005494" d="M311.628,92.925c0.631-2.809,1.527-5.141,5.28-5.141c3.756,0,3.666,2.332,3.038,5.141
			c-0.634,3.213-1.645,5.428-5.334,5.428C311,98.353,310.922,96.138,311.628,92.925z M317.186,92.792
			c0.449-2.114,0.549-3.214-0.669-3.214c-1.215,0-1.561,1.1-2.004,3.214c-0.62,3.075-0.522,3.771,0.491,3.771
			C316.091,96.562,316.496,95.867,317.186,92.792z"/>
		<path fill="#005494" d="M322.389,87.955h2.89l-0.16,7.691h0.033l3.083-7.691h2.81l-4.979,10.229h-3.09L322.389,87.955z"/>
		<path fill="#005494" d="M333.575,98.185h-2.86l2.225-10.229h2.859L333.575,98.185z M336.713,83.609l-0.465,2.215h-2.859
			l0.466-2.215H336.713z"/>
		<path fill="#005494" d="M341.265,89.021h0.031c0.391-0.457,0.797-0.778,1.218-1c0.444-0.167,0.914-0.236,1.418-0.236
			c1.41,0,2.396,0.815,2.072,2.198l-1.726,8.202h-2.856l1.523-7.033c0.158-0.896,0.148-1.627-0.746-1.627
			c-0.893,0-1.226,0.73-1.382,1.627l-1.523,7.033h-2.859l2.15-10.229h2.86L341.265,89.021z"/>
		<path fill="#005494" d="M356.887,87.955l-2.297,10.653c-0.127,0.73-0.725,3.462-4.611,3.462c-2.116,0-3.81-0.521-3.354-3.007
			h2.811c-0.146,0.424-0.158,0.798,0.02,1.07c0.105,0.214,0.418,0.33,0.858,0.33c0.656,0,1.204-0.621,1.384-1.688l0.417-1.909
			h-0.034c-0.562,0.793-1.518,1.2-2.429,1.2c-3.094,0-2.403-2.872-1.851-5.211c0.462-2.213,1.07-5.072,4.101-5.072
			c0.979,0,1.764,0.443,1.927,1.37h0.037l0.281-1.199H356.887z M351.098,96.255c0.996,0,1.375-1.023,1.826-3.248
			c0.462-2.213,0.676-3.482-0.409-3.482c-1.028,0-1.382,0.762-2.072,3.838C350.276,94.368,349.675,96.255,351.098,96.255z"/>
		<path fill="#005494" d="M366.173,98.387c-3.77,0-4.039-2.195-3.314-4.715h3.097c-0.321,1.364-0.547,2.551,1.126,2.551
			c1.068,0,1.747-0.621,1.92-1.66c0.536-2.601-5.52-2.808-4.613-7.116c0.471-2.32,1.981-4.114,5.702-4.114
			c2.962,0,4.159,1.326,3.312,4.422h-3.028c0.265-1.118,0.307-2.257-0.922-2.257c-0.966,0-1.694,0.594-1.87,1.577
			c-0.631,2.794,5.569,2.519,4.616,7.101C371.395,97.945,368.522,98.387,366.173,98.387z"/>
		<path fill="#005494" d="M377.308,93.554c-0.213,1.215-0.573,3.009,0.679,3.009c0.982,0,1.388-0.944,1.61-1.794h2.893
			c-0.299,1.064-0.83,1.96-1.654,2.621c-0.808,0.589-1.92,0.963-3.237,0.963c-3.687,0-3.694-2.215-3.064-5.428
			c0.636-2.809,1.533-5.141,5.285-5.141c3.894,0,3.735,2.49,2.932,5.77H377.308z M380.245,91.946
			c0.245-1.038,0.601-2.422-0.807-2.422c-1.299,0-1.628,1.56-1.779,2.422H380.245z"/>
		<path fill="#005494" d="M390.757,91.605c0.266-1.537,0.039-2.027-0.839-2.027c-1.216,0-1.565,1.1-2.009,3.214
			c-0.69,3.075-0.591,3.771,0.496,3.771c0.877,0,1.514-0.817,1.749-2.133h2.855c-0.553,2.722-2.289,3.923-4.995,3.923
			c-3.69,0-3.695-2.215-2.99-5.428c0.56-2.809,1.457-5.141,5.216-5.141c2.671,0,3.914,1.114,3.373,3.821H390.757z"/>
		<path fill="#005494" d="M399.817,97.117h-0.104c-0.698,0.968-1.532,1.235-2.637,1.235c-1.33,0-2.397-0.813-2.071-2.198
			l1.725-8.199h2.858l-1.529,7.065c-0.162,0.896-0.144,1.591,0.75,1.591c0.898,0,1.219-0.695,1.45-1.591l1.458-7.065h2.86
			l-1.728,8.199c-0.115,0.698-0.273,1.335-0.34,2.03h-2.943L399.817,97.117z"/>
		<path fill="#005494" d="M409.886,87.955l-0.302,1.299h0.034c0.784-1.184,1.859-1.47,3.03-1.47l-0.593,2.538
			c-2.474-0.206-2.833,1.283-3.01,2.264l-1.194,5.599h-2.855l2.149-10.229H409.886z"/>
		<path fill="#005494" d="M415.177,98.185h-2.857l2.149-10.229h2.857L415.177,98.185z M418.244,83.609l-0.466,2.215h-2.861
			l0.467-2.215H418.244z"/>
		<path fill="#005494" d="M419.018,87.955h1.171l0.355-1.625l3.081-1.266l-0.577,2.891h1.436l-0.382,1.742h-1.439l-1.175,5.517
			c-0.133,0.702-0.312,1.267,0.677,1.267c0.147,0,0.372,0,0.494-0.032l-0.38,1.736c-0.399,0.036-0.814,0.084-1.527,0.084
			c-2.471,0-2.451-1.642-2.266-2.228l1.319-6.344h-1.167L419.018,87.955z"/>
		<path fill="#005494" d="M425.73,98.253l-0.557-10.298h2.843l-0.058,7.221h0.034l3.033-7.221h2.773l-6.948,14.069h-2.977
			L425.73,98.253z"/>
	</g>
</g>
</svg>
